<?xml version="1.0" encoding="UTF-8" standalone="no"?>
<!-- Created with Inkscape (http://www.inkscape.org/) -->

<svg
   xmlns:dc="http://purl.org/dc/elements/1.1/"
   xmlns:cc="http://creativecommons.org/ns#"
   xmlns:rdf="http://www.w3.org/1999/02/22-rdf-syntax-ns#"
   xmlns:svg="http://www.w3.org/2000/svg"
   xmlns="http://www.w3.org/2000/svg"
   version="1.0"
   width="989.97772"
   height="627.07098">
  <metadata id="metadata7">
    <rdf:RDF>
      <cc:Work rdf:about="">
        <dc:format>image/svg+xml</dc:format>
        <dc:type rdf:resource="http://purl.org/dc/dcmitype/StillImage" />
        <dc:title>Map of Counties in the USA</dc:title>
        <cc:license rdf:resource="http://creativecommons.org/licenses/publicdomain/" />
        <dc:date>2013-01-30</dc:date>
        <dc:creator>
          <cc:Agent>
            <dc:title>U.S. Census Bureau, Abe.suleiman, Lokal_Profil</dc:title>
          </cc:Agent>
        </dc:creator>
        <dc:source>https://commons.wikimedia.org/wiki/File:Usa_counties_large.svg</dc:source>
      </cc:Work>
      <cc:License rdf:about="http://creativecommons.org/licenses/publicdomain/">
        <cc:permits rdf:resource="http://creativecommons.org/ns#Reproduction" />
        <cc:permits rdf:resource="http://creativecommons.org/ns#Distribution" />
        <cc:permits rdf:resource="http://creativecommons.org/ns#DerivativeWorks" />
      </cc:License>
    </rdf:RDF>
  </metadata>
  <defs id='defs1930'></defs>
  
  <style type='text/css' id='style_css_sheet'>
  /*
   * Below are Cascading Style Sheet (CSS) definitions in use in this file,
   * which allow easily changing how counties are displayed.
   *
   * To e.g. colour two counties red simply go to the CSS insertion point and add:
   * .c02185, c02188 {fill:red}
   * 
   *
   */
  
.counties {fill:#d0d0d0;fill-rule:nonzero;stroke:#000000;stroke-width:0.178287;}
.State_Lines {fill:none;stroke:#221e1f;stroke-width:0.89143497;}
.separator {fill:none;stroke:#a9a9a9;stroke-width:2.3177309;}

/*CSS insertion point*/


</style>
  <path
     d="m 218.13767,190.73014 -4.00076,-0.788 -3.61566,-0.715 -4.40369,-0.997 -2.51563,-0.506 -2.08061,-0.328 -24.5002,-5.201 -1.92907,-0.442 -6.49321,-1.487 -0.12836,-0.05 -19.42972,-4.418 -9.61858,-2.211 -9.02311,-2.275 -0.58835,-0.151 -10.53319,-2.683 m 298.15825,94.021 -0.60261,9.927 -0.007,0.134 -0.59548,10.069 -0.11232,1.995 -0.49029,8.084 -0.12837,1.902 -0.49742,8.013 -0.009,0.144 -0.72385,12.125 -0.12836,2.177 -0.3851,5.898 -0.58657,9.162 -5.69627,-0.401 -9.45099,-0.779 -2.30703,-0.178 -1.52614,-0.113 -16.75363,-1.246 -13.16115,-1.1 -4.8708,-0.448 -2.80445,-0.315 -1.18917,-0.114 -9.03202,-0.915 -5.22381,-0.538 -8.51677,-0.876 -2.55485,-0.274 -4.58198,-0.505 -2.34447,-0.451 -7.61108,-0.9 -1.10003,-0.136 -16.24016,-2.032 -12.02902,-1.608 -17.25283,-2.452 -5.95479,-0.9 -2.93995,-0.58 -4.60516,-0.697 -11.93274,-1.872 -20.25697,-3.414 -6.44508,-1.143 -20.63493,-3.84 m 122.22108,140.381 -1.51009,-1.615 -0.18542,-0.249 -0.0321,-0.106 0.44928,-1.984 0.0481,-0.168 0.41897,-0.987 0,0 0.007,0 0.0642,0 4.22718,0.447 7.3276,0.772 20.88454,2.131 1.36746,0.128 15.94955,1.43 0.85934,0.07 4.98134,0.408 7.6913,0.603 1.14104,0.09 1.00376,0.07 1.36746,0.106 1.09111,0.09 0.47603,0.03 0.15154,-1.993 0.7399,-10.006 0.74702,-10.05 0.8843,-9.868 0.39402,-4.195 0.52951,-5.841 0.8843,-11.009 0.0161,-0.241 0.77198,-10.021 0.35301,-4.766 0.40114,-5.286 0.76307,-10.139 0.2086,-2.694 0.54734,-7.298 0.43502,-6.074 0.27991,-3.705 0.75594,-0.449 0.85043,-11.547 m 120.05311,-122.469 0.57765,0.04 0.22464,0.09 0.17829,0.248 0.0713,0.265 0.007,0.355 -0.11945,0.319 0.19968,2.646 0.51525,0.965 -0.21038,1.422 1.40669,3.889 2.25889,4.195 0.30487,4.243 2.39618,4.065 0.74702,2.635 0.25674,4.677 1.20522,0.724 -0.23356,2.619 0.76485,3.358 -0.54021,2.732 1.5511,4.598 0.97166,1.414 0.22643,-0.491 0.65075,0.578 -0.37797,0.676 -0.19968,0.185 0.0963,0.408 1.13212,2.846 1.21414,1.182 0.0463,0.119 -0.005,0.04 0,0.03 -0.0178,0.417 0,0.06 4.29849,6.044 0.009,0.216 0.11232,0.162 2.12161,1.92 0.85935,0.553 0.43324,0.16 0.33696,0.128 0.0642,0.02 0.0802,0 0.66858,-0.06 0.13015,-0.05 0.1034,-0.1 0.0143,-0.02 0.60261,-0.683 1.47086,1.849 0.14442,0.683 0.13728,0.634 -0.36906,0.822 -0.37083,0.06 -1.26941,1.124 -0.0713,0.08 -0.6044,0.882 -0.20859,0.298 -0.6971,2.097 2.38548,2.624 3.16637,5.017 3.39994,0.907 -0.082,1.079 0.025,1.606 0.0571,4.565 0.007,2.522 0.025,6.044 0.0232,2.058 0.0963,7.614 0.009,0.541 0.0553,8.429 0.007,0.451 0.10518,6.707 0.007,0.603 0.0874,6.525 0.0178,1.359 0.0731,5.359 0.0392,2.291 0.0553,3.903 1.1339,7.803 0.21751,1.377 1.21414,7.921 0.4261,2.788 0.84152,5.554 -0.007,0.403 -0.11232,10.341 -0.0481,4.747 -0.0392,5.121 -0.0571,7.343 -0.041,5.761 -0.0463,7.001 m 34.38265,-303.159 -0.082,0.06 -0.22285,-0.1 -0.91462,-0.893 -0.42789,0.03 -1.1232,0.765 -0.0892,0.183 -0.016,0.17 0.0553,0.144 0.0802,0.105 0.016,0.02 0.016,0.257 -0.21573,0.563 -0.0731,0.07 -0.0784,0.05 -0.47603,0.03 -0.44215,-0.04 -0.36014,-0.25 0.20859,5.632 0.21573,5.964 0.041,0.996 0.0321,0.901 -2.33913,1.46 -3.34823,2.204 -0.79872,0.698 -0.20147,0.266 -0.19968,0.36 -1.61349,3.231 -0.65432,2 -0.0214,0.364 0.007,0.151 0.041,0.61 0.0553,0.451 0.21751,0.168 0.77199,0.13 0.32091,-0.05 1.27119,0.685 0.79338,1.501 0.32091,1.624 -0.60974,1.558 -0.42789,0.53 -0.0214,0.02 -0.19433,0.176 -0.24782,2.001 -0.33875,3.029 0.0499,0.756 0.39936,0.852 0.34945,1.615 -0.1248,1.735 -0.56874,2.717 1.166,0.674 1.69372,1.439 0.17651,0.224 0.041,0.225 1.18918,1.182 0.25851,0.119 0.69889,0.08 2.20898,0.09 0.28169,0.06 0.18542,0.09 0.15867,0.137 0.0571,0.09 1.30328,1.945 2.63508,1.004 3.84031,4.756 5.1828,3.664 2.33912,0.804 2.40153,3.054 0.40293,2.78 1.10003,5.151 0.28882,1.775 -0.016,1.182 1.78465,1.255 0.38688,0.491 0.50456,0.811 -0.0642,0.287 -1.28366,2.163 -0.43681,1.695 0.35658,2.186 0.37618,1.758 1.53505,3.409 0.2086,0.433 1.35676,0.9 0.46712,0.216 0.8843,0.21 2.17688,0.418 0.8433,0.201 0.19255,0.1 0.12124,0.121 1.06972,1.945 0.18363,0.579 0.0107,0.13 -0.0642,0.111 3.61388,-0.178 8.4294,-0.491 1.50296,-0.09 7.35078,-0.38 0.60261,-0.04 7.17783,-0.394 2.76345,-0.184 1.166,-0.08 6.78025,-0.563 1.75256,-0.177 6.73568,-0.465 m -47.8754,3.036 -0.23534,0.403 -0.007,0.05 0.016,0.129 0.0392,0.116 0.13728,0.142 0.39223,0.282 1.13569,0.587 1.44412,1.005 0.007,0 0.0428,0.04 1.01089,1.172 0.0481,0.07 0.009,0.09 -0.0963,0.651 -0.0963,0.215 0,0.146 0.23534,0.53 0.0125,0.03 0.48316,0.603 0.016,0.01 0.29061,0.233 0.312,0.202 0.7078,0.226 2.97205,3.541 0.18542,2.405 -1.32646,3.437 -1.20522,1.352 -0.26565,2.505 -0.89143,1.198 -1.0198,1.189 -3.24661,1.608 -1.38351,0.353 -0.58656,0.02 -0.24782,-0.03 -1.05189,0 -2.41044,0.658 -0.6454,0.234 -0.18364,0.119 -0.016,0 0,0 -0.12124,0.171 -0.016,0.05 -0.23891,0.982 -0.20325,0.792 -0.49029,1.966 0.025,0.207 1.16422,1.4 0.54912,0.272 0.22999,-0.03 0.13907,0.06 0.14619,0.152 0.80942,1.326 -0.016,0.555 0.016,0.06 0.0642,0.2 0.0874,0.62 -0.0695,1.872 -0.1462,0.683 -0.0963,0.144 -0.49742,0.282 -0.18542,0.182 -1.3425,1.915 -0.0642,0.297 -0.11945,2.603 -1.207,1.416 -0.56161,0.01 -0.45819,0.03 -0.14442,0 -0.93422,0.335 -0.10341,0.06 -0.43502,0.248 -0.15332,0.1 -0.0535,0.06 -0.0642,0.06 -0.0642,0.07 -0.73097,1.123 -0.0267,0.171 0.0571,0.193 0.35479,0.167 0.28882,0.419 0.0963,0.28 0.0143,0.232 -0.0535,2.082 -0.041,0.202 -0.2086,0.167 -0.53129,0.187 -1.28367,3.062 -0.10697,1.125 1.23018,5.858 1.75256,4.249 1.04298,1.656 2.47819,1.886 4.23431,4.397 4.31277,3.833 0.82725,2.821 -0.0143,0.288 -0.48315,0.747 -0.0178,0.07 0.0446,0.161 0,0 0.95562,2.562 3.7672,-0.995 3.1646,0.77 0.45819,0.139 0.44929,0.216 0.33874,0.2 1.74365,1.053 0.0731,0.129 0.016,0.135 -0.0642,0.532 -0.0392,0.217 -1.29437,1.58 0.36727,1.85 -1.17847,3.053 -0.0802,0.283 -1.2391,3.222 -0.0499,0.06 -0.0802,0.16 -0.26208,0.892 -0.0339,0.1 -0.016,0.234 0.0339,0.964 0.24068,1.034 0.2086,0.515 0.32983,0.451 0.0571,0.08 0.0464,0.05 1.51187,1.47 0.91283,0.683 5.08831,4.645 4.85476,1.348 3.11645,5.159 0,0 0,0.137 m 1.36568,24.716 0.98949,-0.05 0.18007,-0.339 0.0285,-0.06 0.0232,-0.09 0.0571,-0.227 0.016,-0.06 0,-0.1 -0.007,-0.04 -0.0571,-0.259 -0.11232,-0.266 -0.0107,-0.02 -0.11767,-0.183 -0.025,-0.02 -0.0392,-0.03 -0.0481,-0.03 -0.28169,-0.08 -0.51347,-0.08 -0.33696,0.05 -0.1141,0.07 -0.21038,0.281 -0.0303,0.04 -0.0232,0.09 -0.025,0.105 -0.0178,0.08 0.0178,0.07 0.0178,0.1 0.007,0.02 0.19968,0.426 0.43324,0.609 0.1462,3.737 -1.3122,3.6 -1.62241,4.396 0.98236,2.17 -0.50812,0 -0.33517,0.06 -0.40115,0.209 -0.0606,0.04 -0.11767,0.103 -1.62241,3.464 -0.50812,4.87 -4.36268,2.62 1.24623,1.227 0.0713,0.242 0.74702,5.272 -0.007,0.03 0,0.02 -0.007,0.01 -0.0339,0.05 -0.27991,0.344 -1.97008,1.513 -1.87201,0.617 -0.22464,0.717 0.0321,0.321 0.47246,3.102 -2.09665,0.769 -2.89182,4.605 0.25673,2.676 0.20147,2.064 -0.1355,0.442 -0.0178,0.04 -0.041,0.03 -0.65075,0.57 -0.81834,0.392 -0.98949,0.204 -0.98593,0.192 -1.8007,3.231 -0.85399,1.759 -0.27278,0.569 0.0686,0.242 0.85667,0.699 0.20146,0.5 -0.11232,0.772 -3.71372,1.87 -1.52613,6.573 -0.10519,0.523 0.025,0.05 0.1141,0.203 0.56874,0.426 0.53842,0.435 0,0.02 -0.0499,0.247 -0.33696,0.289 -1.4049,0.565 0.26386,0.73 0.025,0.01 0.97345,0.663 0.79516,0.537 0.15155,0.536 -0.23178,0.459 -0.98949,0.288 0.96453,2.759 0.65075,1.18 0.4992,0.529 0.0553,1.767 -0.61865,2.518 -0.56161,0.634 -0.15511,0.177 -0.63292,1.021 -0.20146,0.731 0.0321,0.186 1.54218,6.989 0.11411,0.274 0.0214,0.04 0.0606,0.07 0.0214,0.04 0.041,0.03 0.18364,0.16 0.0481,0.04 0.61153,0.191 0.13728,0.314 -0.4368,1.47 0.0339,0.369 0,0.03 0.0553,0.08 0.082,0.128 0.016,0.04 2.14479,2.282 0.1355,3.318 -2.24107,0.278 1.96116,2.291 -3.99363,5.828 -2.22502,2.942 -0.19255,0.346 -0.30844,0.528 -0.0143,0.02 -2.09666,4.212 -0.0481,0.09 -0.0731,0.155 -0.007,0.02 -0.73098,5.992 -0.47424,2.477 -0.47603,3.592 9.0552,-0.426 2.28385,-0.112 4.60515,-0.259 5.09545,-0.297 0.37618,-0.01 3.93836,-0.251 1.7276,-0.105 8.32422,-0.553 2.1127,-0.144 0.041,0.713 -0.24247,1.214 -0.1979,0.442 -0.12302,0.02 -0.16046,0.02 -0.0463,0.05 -0.25852,1.075 -0.29774,1.469 -0.2389,1.213 -0.21929,1.642 0,0 3.30187,4.548 0.0339,0.03 0.12836,0.13 1.23018,2.5 0.0303,0.426 -0.18363,0.465 -0.0499,0.193 0.016,0.123 0.62936,1.194 0.19255,0.371 0.43145,0.505 0.1462,0.169 0.0499,0.03 0.0713,0.05 0.0481,0.03 0.0374,0 0.91818,-0.06 m -3.56753,-157.162 -0.85756,-1.927 4.06316,-3.953 0.0981,-0.03 0,0 6.90327,2.935 1.32468,0.141 0.13549,-0.02 0.41898,-0.185 0.21573,-0.595 0.26564,-1.277 -0.51346,-1.141 -0.22464,-0.216 -0.24247,-0.137 -0.76307,-0.916 -0.15511,-0.498 0.0107,-0.153 0.51525,-2.273 0.0945,-0.227 0.23355,-0.303 0.16224,-0.114 0.12837,-0.1 0.312,-0.143 0.11232,-0.05 1.05368,0.344 0.45641,-0.608 0.30666,-0.283 0.016,0 0.0874,-0.06 0.43502,-0.264 0.0392,0 0.1141,-0.03 0.312,-0.09 0.37797,-0.08 2.5085,-0.531 0.18363,-0.04 0.3441,-0.392 0,-0.371 -1.43521,-1.487 -0.1462,-0.264 -0.3851,-1.045 -0.0107,-0.02 -0.0945,-0.52 -0.009,-0.03 0.025,-0.161 0.0963,-0.256 0.0232,-0.05 0.1462,-0.248 0.29061,-0.547 0.0143,0 0.83616,-0.608 0.21751,-0.236 0.1355,-0.247 0.0874,-0.234 0.23356,-0.875 1.60636,-2.53 4.07565,-0.323 4.39477,-1.326 2.75632,0.739 0.64361,0.45 2.62617,1.75 1.3425,-2.424 1.11786,-1.047 2.79732,-1.854 3.19669,3.316 0.13728,0 0.2389,-0.08 0.49921,-0.387 1.17313,-2.674 -0.1355,-1.373 0.0303,-0.252 0.0731,-0.103 0.0963,-0.06 0.36905,-0.07 0.10519,-0.01 3.62458,-2.329 -0.0553,0.649 0,0.04 0.007,0.161 0.007,0.105 0.0161,0.04 0.12836,0.449 0.10519,0.161 0.041,0.06 0.0874,0.06 0.81121,0.537 0.78089,0.306 0.12837,0.02 2.59586,0.128 0.53664,-0.177 0.86826,-0.296 0.44215,-4.041 1.67233,-2.757 2.4978,-2.41 3.2787,-3.712 -0.0553,-1.449 1.24445,-3.736 2.48353,0.862 2.92391,-2.001 3.89022,-2.63 -0.24247,-1.003 -1.77395,-2.828 0.81833,-1.847 3.55148,0.305 2.0093,-0.733 3.48729,1.286 1.95224,3.198 0.16937,1.054 3.30188,0.939 2.63686,-0.281 0.60975,0.08 0.21751,0.08 0.11232,0.09 1.56714,1.622 1.39064,0.69 1.02693,-0.121 0.0963,-0.811 0.13728,-0.225 0.18542,-0.128 1.39777,-0.612 0.21929,-0.05 0.15154,0.02 0.025,0 0.72028,0.177 1.9148,0.46 0.0481,0.02 0.60083,0.282 1.06081,0.777 4.05959,-3.423 0.31914,-0.145 1.48691,-0.674 0.48494,-0.212 0.0214,0 0.0909,0 0.18364,0.08 0.082,0.09 0.0232,0.04 0.0481,0.07 0.0303,0.06 0.009,0.03 0.007,0.03 0.0339,0.137 0.0143,0.163 0,0.02 0.009,0.01 -0.0178,0.278 0.16937,0.724 0.49921,1.502 0.041,0.09 0.11945,0.255 0.14442,0.169 0.0178,0.03 0.3851,0.257 0.0802,0.04 2.86685,1.116 1.5511,1.743 0.37797,4.035 -0.44929,1.966 0.0713,0.209 0.16224,0.403 0,0.02 0.3227,0.287 0.34409,0.08 0.0481,0.01 2.82763,2.699 0.025,0.03 0.007,0.02 0,0.129 -0.46533,0.804 1.8631,1.718 1.86132,2.531 0.0303,0.12 0.67214,1.036 3.65845,2.461 1.31041,0.474 0.71315,-0.162 0.70066,-0.209 0.81121,0.483 -0.25139,0.113 -0.8112,0.731 -0.0481,0.153 0.12837,0.344 1.55109,2.202 1.51188,1.317 0.21573,0.107 2.04316,0.738 1.20344,0.715 2.10557,-0.417 0.0571,-0.03 0.78803,-0.724 0.0143,-0.02 1.57428,-1.44 0.66679,-1.341 2.8205,1.97 4.19688,-2.025 1.66698,-3.457 1.79535,1.037 2.23394,-1.677 0.18542,-0.147 1.80783,-1.429 0.86112,1.237 0.52238,-0.442 2.05565,-1.817 -0.41006,-0.761 0.56339,-1.166 1.03585,-1.254 -1.58497,-1.239 3.29652,-6.668 1.24444,-2.836 2.13767,-5.096 -0.43324,-0.875 0,-0.03 0.009,-0.08 1.10003,-1.71 0.47425,-1.688 0.0891,-1.625 0.0303,-1.904 1.77752,0.426 0.36192,0.161 0.33697,0.337 1.09111,1.617 3.07902,0.522 1.24622,-1.799 1.80783,-6.976 3.28583,-0.635 0.68284,-2.323 0.23356,-0.724 0.041,-0.06 0.0784,-0.126 0.9164,-0.869 0.0713,0.12 0.0731,0.112 0.0571,0 1.6866,-1.59 0.56338,-1.247 0.0321,-0.16 0.0143,-0.877 0.49207,-0.843 0.19968,-0.193 0.54021,-0.533 0.271,-0.496 0.26743,-0.626 0.0642,-0.37 0.0481,-4.386 -0.20147,-2.516 2.37122,1.311 3.95262,2.242 4.13804,2.32 1.06259,-4.661 m -203.83195,67.644 0.016,0.209 0.1141,0.46 0.007,0 0.51347,0.958 0.33696,0.504 0.47603,0.467 0.22464,0.282 0.28882,0.651 0.007,0.02 0.009,0.04 0.10341,0.387 0.009,0.02 -0.009,0.03 -0.0713,0.708 -0.0731,0.217 -0.0143,0.02 -0.0178,0.02 -0.016,0.02 -0.2086,0.107 -0.65788,0.176 0.0303,2.017 0.45998,0.658 1.11608,2.089 0.64183,1.574 1.21414,0.99 3.4962,0.376 0.65075,0.838 -0.68819,2.298 -0.52594,0.305 0,0.53 1.0608,0.563 -0.70601,3.188 -2.76523,0.62 -1.42273,3.19 1.29436,-0.184 9.36185,-0.676 0.13728,0 0.19968,-0.02 5.48946,-0.396 0.49742,-0.03 7.97834,-0.554 -0.65966,-4.154 1.07151,-0.06 2.98809,0.06 -0.007,0.707 2.90073,-0.338 0.96454,-0.111 5.56077,-0.579 4.02393,-0.394 0.98771,-0.114 5.40745,-0.649 3.66558,0 2.74918,-0.676 3.79217,-0.136 4.18618,-0.176 3.43915,-0.21 6.42012,-0.617 2.54059,-0.46 0.35301,-0.06 5.641,-0.354 3.35892,-0.154 0.1355,0 9.43495,-0.884 0.62757,-0.07 4.35555,-0.499 1.03585,-0.103 4.60515,-0.884 3.70302,-0.41 8.86265,-1.118 2.80445,-0.385 4.01859,-0.571 5.7141,-0.852 0.91461,-0.137 1.76861,-0.241 3.84743,-0.555 0.12837,-0.538 1.74543,-0.209 3.26978,-0.442 -0.47424,0.63 5.92269,-0.596 8.22795,-0.997 1.16599,-0.121 4.09169,-0.643 3.14142,-0.337 7.02094,-0.988 0.47424,-0.08 5.64992,-0.951 3.69589,-0.618 0.73097,-0.136 2.29812,-0.408 2.24285,-0.412 1.45304,-0.257 6.1723,-1.116 1.11607,-0.217 4.99917,-0.933 2.3944,-0.481 4.99738,-0.957 2.63687,-0.523 2.38548,-0.456 8.47754,-1.672 2.3623,-0.516 4.46788,-0.839 7.61285,-1.723 3.1949,-0.675 3.42133,-0.722 4.58376,-0.981 m -79.99559,151.861 -0.30309,0.03 -1.67233,0.202 -1.22305,0.06 -2.31238,-0.257 -3.06297,-0.658 -0.83617,-0.563 -2.15014,1.253 -0.17116,2.484 0.0874,0.474 0.30665,0.465 0.60261,0.788 0.25852,0.706 0.0143,1.537 -0.10519,1.573 -0.10341,1.592 -2.24998,0.435 -0.13015,-0.03 -0.40828,-0.321 -0.36905,-0.529 -0.19433,-0.514 -0.57765,-3.221 -4.03464,0.247 -0.80407,0.06 -2.45858,0.176 -2.08952,0.153 -8.84482,0.608 -3.41598,0.236 -0.95027,0.06 -5.02769,0.346 -2.61191,0.169 -5.20776,0.355 -1.50831,0.102 -3.89913,0.274 -1.97008,0.137 -9.54192,0.642 -3.48194,-6.283 -9.59541,1.173 -10.59738,1.231 -2.98274,0.296 -3.94549,0.401 -5.89951,0.565 -1.88628,0.143 -7.39356,0.659 -8.54886,0.812 -0.44394,3.077 0.25852,0.438 2.00038,2.181 0.62935,0.433 0.11054,0.04 0.32983,0.06 0.66679,0.344 0.88431,0.548 0.24068,0.394 0.0713,0.272 0.0321,0.378 -0.19968,5.023 -0.26565,2.514 -1.2694,0.572 m 161.56902,-105.138 -2.43362,-1.736 -9.3048,-6.647 -8.33313,-6.072 -0.25495,-0.177 -4.87793,-3.246 -4.4447,0.723 -7.29728,1.058 -4.47322,0.663 -4.01146,0.592 -0.37797,-0.07 -0.009,-0.218 -0.12837,-2.346 -1.31754,-1.327 -1.49405,-1.526 -2.79019,-1.23 -5.30225,0.483 -0.72385,0.07 -7.46309,0.788 -1.97721,0.202 -1.76147,0.192 -4.59624,0.475 -2.59942,0.119 -3.82783,2.009 -3.29474,2.25 -2.41757,0.619 -1.96116,0.947 -1.78465,0.863 -0.40293,1.831 -1.70442,1.324 -1.23553,2.243 -0.30666,1.737 0.37084,0.618 4.77096,2.933 1.15174,0.803 1.16599,0.162 0.2086,-0.105 0.016,0 0.74881,-0.186 0.67392,-0.09 0.39402,0.112 0.19255,0.147 -0.007,0.06 0.62578,0.966 1.99147,2.803 0.7078,1.842 3.34288,4.122 0.78803,1.198 2.84368,1.693 0.11945,0.03 0.26743,-0.104 0.0874,0 1.64024,0.827 0.49742,0.355 1.18204,0.972 0.76307,1.439 2.20006,1.92 1.85775,0.786 0.31201,0.291 0.16224,0.153 0.90035,0.852 1.27475,1.487 0.45107,1.742 1.248,1.767 1.78822,1.351 3.20739,1.503 1.57605,0.867 3.65489,6.452 0.82903,3.359 2.00929,0.804 0.36906,0.137 1.71155,1.414 2.03961,4.138 0.2496,1.221 0.0998,0.45 0.18185,0.918 0.2496,0.996 0.0892,0.09 1.08577,0.419 3.57465,0.674 m 70.56777,-152.514 0.58835,-1.15 0,0 6.5467,-2.227 m 1.23731,-10.35 -5.10079,1.115 -0.25852,0.06 -0.6757,0.154 -0.28348,0.05 -0.24425,0.05 -0.066,0.01 -0.895,0.168 -0.36727,0.07 -1.04476,0.199 -0.52238,0.1 -0.0642,0 -1.22839,0.208 -0.54021,0.09 -0.20682,-0.725 -0.19255,-0.658 -0.24068,-0.867 -0.46712,-1.665 -1.22304,-4.355 -1.96829,-7.007 -0.64184,-2.289 -0.32091,-1.134 -0.50634,-1.799 -2.06456,-7.722 2.73849,-3.334 0,0 3.27156,0.118 m 4.32346,-37.886 -1.01445,0.731 -0.48138,0.522 -0.41006,0.844 -0.0874,0.256 -0.20859,0.892 -0.0321,0.314 0.0713,0.07 0.0321,0.378 -0.1034,0.691 -0.47425,1.118 -0.68462,0.963 0.0963,0.119 -1.87202,3.497 1.63133,1.922 0.0571,0.135 -0.009,0.136 -0.57765,1.77 -0.35123,0.487 -0.2603,0.03 -0.25673,-0.03 -0.1355,0.04 -0.29239,0.686 0.17829,1.387 0.42432,1.641 0.1141,0.208 0.18721,0.362 2.4657,1.006 1.3015,2.619 1.67055,1.012 0.1141,0.06 4.63546,3.56 -3.76898,3.189 -1.10895,1.616 -1.30862,2.433 -0.68641,0.981 -3.17886,2.225 -0.4261,0.756 -0.62757,2.227 m 20.02341,-28.865 0.16224,-2.161 0.45998,-2.088 0.0713,-0.87 -0.0268,-1.884 -6.08137,-1.819 -0.40114,-0.121 -2.51563,-0.852 -6.31493,-2.209 -1.36746,-1.337 -0.75415,0.08 -1.35142,0.07 -0.29774,-0.138 -1.831,-0.95 -0.52239,-0.497 -0.7381,-0.722 -0.45998,-1.054 -2.73136,-4.901 -2.10557,-0.346 -0.53843,-1.15 -0.30487,-0.289 -1.01267,-0.713 -0.3227,-0.07 -2.05565,0.456 -10.35134,2.243 -0.68106,0.145 -6.85335,1.406 -6.15625,1.231 -0.64361,0.142 -10.73466,2.181 -2.33913,0.472 -7.63425,1.441 -1.69194,0.335 -4.83336,0.889 -4.64259,0.903 -0.7399,0.128 -2.38726,0.403 -9.19248,1.629 -0.25673,0.05 -2.28207,0.394 -0.52951,-3.012 -0.44216,-2.549 -0.098,-0.61 m 144.29657,-46.196 -1.18382,0.07 -0.48851,0.03 -0.11232,0.06 -0.13193,0.06 -1.55645,1.15 -1.18917,1.013 -0.39223,0.337 -0.21751,0.226 -0.90748,1.822 -0.10698,0.243 -0.41541,0.987 -5.5465,1.279 -0.0713,0.02 -0.2496,0.06 -4.06494,0.909 -0.49208,0.111 -5.83176,1.262 -2.8936,0.619 -7.76975,1.663 -1.52792,0.321 -3.98471,0.861 -0.14798,5.648 -0.25317,10.141 0.3851,0.779 0.16046,-0.04 7.22419,-1.528 0.73989,-0.167 8.26004,-1.953 6.17942,-1.463 0.56161,-0.111 0.7078,-0.146 4.28958,-1.02 0.11232,0.337 4.90111,-1.503 2.10735,0.218 2.28921,4.394 1.92193,1.07 0.69889,0.651 2.29634,3.641 m -205.3874,285.775 -0.57587,-1.665 -0.21216,-0.458 -0.14619,-0.262 -0.92888,-1.022 -0.14619,-0.04 -0.16938,0 -0.16937,-0.1 -0.19968,-0.465 -0.27278,-1.632 0.1355,-0.595 0.20859,-0.61 0.24247,-4.901 -2.13766,-5.329 -0.33874,-0.449 0.90748,-4.937 -0.0535,-1.719 2.08953,-4.127 0.0464,-0.07 0.16046,-0.724 -0.19255,-0.383 -0.47424,-0.396 -1.27654,-0.344 -0.12123,-0.136 -0.041,-0.194 0.21573,-0.82 -0.53486,-3.174 -1.84349,-2.05 -1.38886,-3.059 -1.2284,-2.735 -1.54396,-5.344 -0.13728,-0.481 -1.8631,-6.725 -0.34588,-1.239 -1.07685,-3.831 -1.55823,-5.611 -0.39401,-1.405 -0.73098,-2.628 -1.28545,-4.644 -1.57606,-5.351 -0.40827,-1.455 -0.22465,-0.789 -1.51187,-5.344 -0.72384,-2.811 m -87.76356,7.185 10.92899,-0.669 1.49405,-0.11 5.44845,-0.353 2.88468,-0.204 3.37319,-0.247 3.62636,-0.282 0.68284,-0.06 7.57541,-0.603 0.31379,-0.02 3.05227,-0.251 3.99541,-0.578 7.07087,-0.547 7.14574,-0.553 0.23177,-0.02 6.99242,-0.49 0.97701,-0.09 8.66653,-0.854 0.14085,0 8.33491,-0.811 4.82802,-0.435 2.47462,-0.257 2.01821,-0.217 1.83101,-0.25 5.32543,-0.669 3.1218,-0.367 0.64005,-0.08 2.87042,-0.351 5.56791,-0.685 -0.0695,-5.079 1.51543,-1.334 1.98077,-0.05 0.70424,-0.579 0.43502,-0.594 0.75415,-4.122 0.15333,0.05 5.02056,-3.18 0.0891,0 0.33697,0 2.62616,-0.271 0.22643,-0.146 3.18955,-2.525 0.66679,-0.977 -0.0802,-0.437 5.11327,-2.544 0.71136,-3.625 0.83082,-0.21 1.62241,-1.519 1.1553,-1.141 0.3227,-0.234 0.46711,-0.336 0.0874,-0.01 0.27635,0.184 0.35122,0.337 1.97899,1.15 1.30862,-2.395 3.2787,-2.442 2.74027,0.793 2.16084,-4.042 0.19255,-0.554 0.1355,-0.369 0.84508,-0.947 0.9164,-0.627 0.0232,-0.02 0.0963,-0.06 0.1141,0.263 0.48138,0.154 0.28704,-0.01 0.0339,0 0.38332,-0.129 -0.0695,-1.095 0.0874,-4.713 m 117.44834,-168.435 -1.23018,-4.404 -1.71869,-8.397 -0.97345,-4.525 -2.76344,-0.61 -0.54556,-0.226 -0.0642,-0.09 -0.16224,-1.342 0.0909,-0.933 0.31022,-1.704 -0.59548,-1.157 -0.27991,-0.507 -1.91659,-4.525 -0.0356,-0.08 -0.0392,-0.772 0,-0.749 0.009,-1.902 0.67392,-1.922 -0.53842,-2.796 0.0891,-0.964 -0.025,-0.25 -0.009,-0.01 -0.29774,-0.804 -0.22999,-0.499 -0.76486,-0.924 -0.46711,-0.273 -0.26564,-0.224 -0.48138,-0.901 -0.81834,-4.797 -0.58834,-3.769 0.025,-0.394 m -30.22321,154.018 1.9148,-3.006 -2.09131,-1.077 -0.91461,-0.474 -0.98236,1.599 m -44.28293,-10.214 1.88806,11.789 2.87756,-3.454 3.26978,-3.945 1.89697,0.426 2.88469,-3.971 2.12161,0.844 3.35001,-0.184 1.83993,-3.15 0.93244,0.185 0.20859,-0.03 0.62044,-1.143 0.45642,-0.722 0.12123,-0.137 0.10519,-0.04 0.59548,0.02 0.64896,0.07 0.64362,0.241 0.80229,0.581 0.29596,0.328 3.97223,2.193 2.60477,3.576 0.68998,-0.08 4.2664,1.496 -0.70601,1.116 -0.0731,0.193 -0.007,0.105 -0.0428,0.289 -0.0214,0.208 0.005,0.02 0.12302,0.392 0.11232,0.136 0.11232,0.08 1.13926,0.765 0.0339,0.01 0.63292,0.04 0.86113,-0.04 0.83616,-0.09 4.1844,2.096 0.66857,0.546 0.80408,0.353 0.47246,0.918 0.12837,1.141 0.009,0.102 -0.43324,2.004 -0.4582,1.774 m -95.31935,21.351 1.57605,0.05 2.83833,-1.123 0.17651,-0.114 0.0945,-0.121 0.0499,-0.136 0.0321,-0.153 0.0321,-0.168 0.0802,-1.647 0.007,-0.05 0.007,-1.006 1.166,-0.386 0.33696,-0.07 0.10519,-0.02 0.0392,-0.04 0.0998,-0.08 0.0446,-0.05 0.0731,-0.12 0.0232,-0.112 0.009,-0.135 0.009,-0.08 0,-0.03 -0.025,-0.16 -0.45998,-1.874 0.22643,-3.721 0.40293,-2.202 0.0553,-0.321 0.82012,-1.388 0.30488,-0.161 0.28169,0.01 1.30149,0.71 0.34766,0.431 0.44037,0.66 0.0642,0.178 0,1.206 0.58656,-0.154 1.8631,-1.326 0.0428,-0.193 -0.42789,-1.85 -0.19255,-0.225 -0.40293,-0.269 -0.19968,-0.146 -0.19255,-0.252 -0.0874,-0.314 0,-0.199 1.09111,-0.475 -0.32804,-1.927 0.312,-0.69 0.41006,-0.902 2.29812,-2.926 1.11786,-1.365 0.18363,-0.159 0.16046,-0.05 0.20147,0.02 0.45106,0.25 0.12837,0.137 0.77555,0.956 3.53186,-3.029 1.54932,-2.42 1.40668,-1.784 1.58319,-2.924 -0.19255,-3.094 0.7078,-4.323 0.0464,-2.926 0.18542,-0.722 0.40115,-4.933 -1.56536,-4.165 2.33912,-1.702 m -76.49225,-13.91 0.47425,3.81 0.28882,2.394 0.43324,3.56 0.0499,0.425 0.72384,6.06 0.1872,1.535 0.542,4.468 0.42075,3.583 0.56874,5.056 0.11945,0.977 0.70958,7.032 0.2086,2.034 0.48851,4.386 0.41897,3.666 0.12124,1.043 0.51346,4.999 0.52951,4.598 m -54.00669,35.885 -0.90748,-2.034 0.86112,-0.03 0.0303,0 0.0392,-0.03 0.0107,-0.02 0.0481,-0.1 0.25673,-5.325 0.10341,-2.411 0.025,-0.112 3.46233,-4.598 1.27832,-3.68 0.34588,-0.941 1.40668,-1.799 0.14263,-0.12 0.17651,-0.322 0.25138,-1.462 0.007,-0.562 -0.68462,-1.471 -0.0392,-0.06 -0.0731,0 -0.14441,-1.146 0.10519,-0.145 0.12836,-0.363 0.0481,-0.733 -1.27653,-2.281 -0.83617,-0.982 -0.36192,-1.235 0.23355,-2.395 0.82012,-5.143 -0.27456,-3.005 -0.58656,-6.363 -0.51347,-6.115 -0.59369,-7.604 -0.0267,-0.328 -0.50455,-5.666 -0.56339,-6.308 -0.32983,-3.592 -0.27278,-3.045 -0.33874,-3.96 -0.46355,-5.498 m -64.89646,35.334 -1.13926,-0.08 -0.72563,-0.586 -1.75077,-2.154 -0.0642,-0.16 0.0571,-0.467 -0.041,-0.152 -1.37459,-1.038 -0.36193,-0.226 -3.93657,0.01 -4.09882,0.288 -2.956,0.193 -4.97421,0.337 -1.32645,0.07 -6.63763,0.348 -4.80483,0.223 -3.17351,0.09 -3.76899,0.155 -4.18618,0.177 -3.76007,0.117 -4.14695,0.1 -2.78663,0.03 -4.91181,-0.02 -4.99738,-0.03 -2.97383,-0.02 -6.79808,-0.07 m 84.66314,-140.558 1.81497,0.988 3.23056,3.97 1.47799,0.312 1.62242,0.337 11.52447,2.364 0.86647,0.177 0.67749,0.144 1.0929,0.369 1.13212,0.555 0.97345,0.474 4.08099,1.045 0.32983,0.586 2.81159,-0.298 4.67647,0.587 0.0356,0 0.39937,0.06 0.61152,0.296 0.37797,0.252 0.24782,0.158 0.47246,0.676 0.0499,0.07 0.0232,0.08 -0.22465,0.385 -0.25673,0.362 -0.11232,0.09 -0.28169,0.36 -0.009,0.02 -0.0232,0.08 0.1034,0.201 0.0161,0 0.6133,0.498 0.1355,0.03 0.21751,0.06 0.016,0 0.21751,-0.03 3.79929,1.021 0.30488,0.248 0.025,0.02 0.041,0.04 0.48138,0.594 0.16045,4.147 1.42273,6.839 0.009,0.02 0.14263,0.472 0.0731,0.122 1.2694,1.342 0.0161,0 0.41719,0.07 0.73097,0.115 m -495.02988,256.913 2.01821,0.151 2.66718,-1.654 0.83438,-1.173 0.16937,-0.596 0.18542,-1.512 -0.57052,-1.331 -0.0553,-0.06 -0.0571,-0.07 -1.67233,-0.28 -0.312,-0.137 -0.88609,-0.62 -0.40115,-1.068 -0.0143,-0.04 1.13212,-6.975 1.92729,-0.476 2.31416,-2.731 0.74881,-2.603 0.54555,-2.725 0.10519,-0.747 0.49029,-1.759 0.53843,-0.933 1.7276,-2.442 2.36943,-0.908 1.6242,-0.667 2.41044,-1.39 0.10519,-1.029 -0.8843,-1.546 -1.02159,-1.137 -1.17313,-1.407 -1.18739,-4.999 -0.0642,-0.925 -1.27832,-2.008 -1.01267,-2.635 -0.0161,-0.121 0.0321,-0.321 0.57765,-2.557 -2.51385,-3.742 -6.81591,-10.198 -0.47246,-0.701 -1.27119,-1.895 -3.68697,-5.537 -3.61566,-5.383 -0.2086,-0.307 -2.63687,-3.952 -0.6347,-0.949 -4.91715,-7.384 -6.06711,-9.08 -1.14995,-1.744 -1.96829,-2.926 -0.34409,-0.513 -9.2424,-13.876 -8.18872,-12.224 -9.81827,-14.771 -2.30703,-3.435 -3.43024,-5.135 -4.23432,-6.351 -0.90926,-3.446 0.24247,-1.013 0.28882,-1.198 0.85935,-3.382 0.77911,-2.884 1.64024,-6.212 0.35301,-1.31 1.73473,-6.508 1.13391,-4.3 0.32983,-1.294 1.03585,-4.008 2.06456,-8.221 1.83279,-7.135 4.70143,-18.161 -4.74244,-1.198 -0.65074,-0.167 -6.04928,-1.608 -3.05406,-0.82 -9.304795,-2.603 -13.733447,-4.09 -0.916396,-0.282 -0.52238,-0.169 -2.016426,-0.546 -2.208976,-0.547 -5.569686,-1.575 -0.426106,-0.121 -0.722062,-0.216 -1.752561,-0.636 -1.228398,-0.255 -4.749565,-1.326 -4.974207,-1.375 -6.332754,-1.993 M 218.36384,26.509143 l -2.37122,11.097 -1.37459,6.388 -1.11608,5.311 0.47425,0.843 3.09328,6.301 0.0232,0.08 0.025,0.06 0.007,0.03 0,0.09 -0.007,1.287 -0.52238,1.325 -0.44215,1.005 -0.29774,1.865 0.0161,0.569 2.46036,3.4 0.33696,0.288 0.26565,0.234 0.8433,0.41 1.22126,0.489 0.26565,0.194 1.39777,3.148 1.30863,3.054 0.73989,1.382 0.40114,0.74 0.30666,2.323 0,0.01 0.0713,0.195 2.31595,3.093 0.22464,0.06 0.10341,0.03 0.68997,0 0.8843,2.19 1.7276,0.372 0.36192,-0.1 0.24961,-0.1 0.41006,-0.08 0.82725,0.112 0.28169,0.233 0.0731,0.07 0.0874,0.09 0.0571,0.266 -0.0963,0.506 -0.55626,1.574 -0.93957,2.163 -1.40669,3.125 -4.48391,11.185997 -0.56161,3.077 -0.28169,1.558 -0.0161,0.08 0.0481,0.06 0.7078,0.1 0.6347,0.16 0.20147,0.09 1.18026,1.864 0.14441,0.571 0.65966,0.103 3.15033,-1.446 1.98434,-1.736 1.41381,-0.811 0.32983,0.346 1.55823,2.201 0.0891,0.289 0.18364,1.824 -0.0143,0.683 -0.2086,0.378 -0.041,1.366 0.0232,1.8 2.51563,9.353 2.66718,3.712 0.54734,-0.135 0.57052,0.449 0.68283,0.763 0.30666,0.474 0.35122,1.102 0.46712,2.001 0,0.176 -0.0963,0.177 -0.0642,0.05 -0.0232,2.868 0.19077,1.086 0.44393,0.642 1.30863,1.464 0.41719,0.151 0.32983,-0.184 0.16046,-0.249 0.009,-0.06 0.19255,-0.86 0.23356,-0.361 0.6347,-0.674 1.08399,-0.257 5.74619,1.43 2.44253,-0.917 4.475,0.459 3.23948,0.923 2.08952,0.06 2.77949,-3.191 1.83101,-0.69 0.77198,0.763 1.31933,2.587 0.71493,2.064 0.18542,0.548 1.30862,1.214 m 116.92596,-19.792 -0.10519,1.453 -1.23731,15.326 -0.69888,4.917 -0.80408,9.788 -0.73989,8.968 -0.0784,0.898 -0.57051,6.606 -0.67571,8.06 -0.0481,0.58 -0.90748,10.982 9.1586,0.749 8.42941,0.651 3.48729,0.265 11.87748,0.817 3.46234,0.226 4.17904,0.321 6.66081,0.346 5.37713,0.282 6.07424,0.281 3.26265,0.154 1.19809,0.06 1.33359,0.07 11.12867,0.467 4.68538,0.168 12.67086,0.371 3.10398,2.784 2.36052,1.07 1.83279,1.582 0.36192,0.16 0.29774,0.05 0.27991,-0.01 0.85221,-0.129 0.22464,-0.139 0.47425,-0.431 0.353,-0.506 1.93798,-0.715 1.46909,0.19 3.39102,-0.222 1.04476,-0.138 1.5921,0.06 1.19631,0.145 1.94511,1.656 2.08061,0.596 3.52117,1.315 1.37281,0.869 0.18541,0.419 0.0963,0.385 -0.0642,0.271 -0.009,0.21 0.0499,0.209 1.20522,1.792 3.24661,0.829 -0.60439,-1.666 -0.60975,-1.606 -0.43502,-0.699 -0.55447,-0.515 -0.44037,-0.337 0.67393,-3.084 0.6757,-1.801 1.16422,-4.019 0.26565,-0.708 0.0481,-0.158 -0.64361,-2.314 -0.15868,-0.08 -1.19809,0 -0.37083,-0.836 -0.28705,-5.552 2.42471,0.02 m -11.28913,-126.190997 -0.0731,0.07 -0.0713,0.337 -0.0178,0.339 0.0892,0.481 1.10894,3.623 0.29774,0.884 0.67571,1.535 -1.02961,3.178 0.45731,0.495 0.0981,5.48 -0.50634,1.953 -0.009,0.467 0.36192,1.453 1.49583,5.391 2.02355,4.621 0.53843,3.962 0.2817,5.978 0.0802,1.992997 0.0232,2.908 0.66679,2.186 0.19434,0.531 -0.30666,4.998 0.009,1.29 0.68284,1.988 2.20897,5.32 0.61153,4.821 0.0481,0.403 -0.0321,0.465 -0.0392,0.145 -0.29774,0.836 0.21751,1.993 -0.0891,1.004 0,0.05 -0.009,0.03 -0.0713,0.61 -0.0571,0.497 -0.0392,0.209 -0.016,0.114 -0.016,0.05 -0.016,0.03 -0.025,0.06 -1.12499,1.671 -0.32805,0.33 -0.61866,0.337 -0.55625,0.362 -1.46909,1.18 -0.025,0.03 -0.0321,0.04 -0.025,0.02 -0.0553,0.128 -0.22464,0.771 0.0642,0.09 0.28883,0.369 1.12499,1.503 2.3623,2.619 1.5511,0.756 0.52951,0.426 0.30665,0.706 0.26565,1.326 -0.0178,6.702 -0.0321,7.98 -0.0143,2.017 -0.0499,7.987 -0.0481,8.003 -0.0321,8.06 6.6608,0.02 3.19134,0 6.7749,-0.04 1.10895,0 7.86602,-0.07 1.01267,-0.02 6.84622,-0.1 3.25552,-0.05 4.60337,-0.07 5.35931,-0.121 2.52454,-0.06 7.45596,-0.215 0.41006,-0.02 7.84285,-0.28 1.73651,-0.06 6.12951,-0.25 5.81929,-0.248 1.98433,-0.09 6.53957,-0.314 m -434.36951,-2.74 8.50963,-37.886 1.77574,-4.307 0.48138,-0.804 0.78089,-1.478 0.62579,-2.555 0.81299,-0.997 0.0232,-0.04 0.0232,-0.05 0.0321,-0.06 0.009,0 0,-0.02 0.0232,-0.234 -0.0553,-0.176 -0.0161,-0.03 -0.85221,-1.686 -0.16759,-0.105 -0.63648,-0.225 -0.0874,0 -0.15333,0.07 -2.00038,-0.811 -0.24069,-0.408 -0.0321,-0.33 0.0232,-0.194 0.041,-0.122 0.55448,-3.783 0.20146,-0.403 3.55861,-4.892 0.37797,-0.339 0.11232,-0.05 0.39401,-0.09 1.53505,-0.523 0.87539,-0.941 0.48316,-0.513 0.37619,-0.403 0.53842,-0.931 0.016,-0.02 -0.0232,-0.185 -0.0963,-0.225 -0.0571,-0.225 -0.016,-0.465 0.40114,-0.836 0.50812,-0.467 0.77912,-0.706 2.40152,-3.914 0.54556,-1.15 2.78128,-3.567 1.54218,-1.576 0.38688,-0.441 0.0642,-0.29 -0.55448,-2.907997 -0.10519,-0.442 0,0 -0.312,-0.396 -0.27456,-0.353 -0.007,0 -0.58657,-0.257 -1.39955,-1.287 -0.73098,-0.674 -0.0481,-0.09 -0.0713,-0.136 -1.13212,-3.528 -8.81629,-2.057 -1.92015,-0.466 -5.84247,-1.406 -0.29595,-0.07 -15.44501,-3.703 -0.45106,0.378 -0.3441,0.151 -1.17312,0.339 -0.57052,0.09 -0.69889,-0.05 -0.41006,-0.103 -0.44215,-0.227 -2.41044,-0.33 -0.90926,-0.05 -0.90748,-0.06 -3.11824,0.385 -1.67055,-0.159 -1.53505,-0.16 -2.19828,0 -2.42292,0.296 -0.51347,0.128 -0.83617,0.635 -3.16637,-0.193 -1.25336,-0.217 -0.32805,-0.216 -0.19433,-0.281 -0.41719,-0.787 -0.44929,-0.315 -0.68462,-0.168 -0.33696,0.112 -0.69175,0.33 -1.71869,0.241 -1.41382,0.217 -0.83616,0.257 -0.34588,-0.458 -5.83355,-2.731 -0.55447,-0.113 -1.10003,-0.162 -1.09468,-0.948 -1.72582,-0.03 -1.32646,-0.104 -0.43502,-0.105 -1.10716,-0.61 -0.94849,0.06 -0.68284,0.353 -0.45106,0.403 -5.70519,0.796 -0.29774,0 -0.45641,-0.122 -0.52416,-0.256 -4.458962,-2.748 -0.426106,-0.322 -0.818337,-0.86 -0.313785,-0.401 -0.01605,-0.563 0.153327,-0.418 0.344094,-0.579 0.418974,-2.804 0.119452,-0.378 0.144413,-2.186 -0.449283,-2.505 -0.153327,-0.605 -2.594076,-3.18 -0.755937,-0.314 -0.82012,0.152 -2.481755,-0.104 -0.121235,-0.04 -0.673925,-1.052 0.351225,-1.028 -0.167589,-0.539 -0.233556,-0.417 -0.06418,-0.105 -0.04814,-0.03 -0.08914,-0.06 -1.035847,-0.06 m 459.247685,277.218997 -7.10296,0.06 -1.19809,0 -6.09741,0.06 -2.09131,0 -4.82088,0.03 -3.89557,0 -9.57223,-0.03 -4.0899,-0.02 -7.24737,-0.07 -5.73727,-0.07 -6.19548,-0.107 -5.64991,-0.105 -4.28245,-0.09 -3.60675,-0.114 -8.30817,-0.257 -8.29392,-0.282 -1.55109,-0.06 -8.40623,-0.385 -1.58141,-0.07 -9.90741,-0.408 -5.682,-0.241 -2.20898,-0.112 -8.89652,-0.443 -8.60591,-0.474 -0.25674,-0.02 m 260.83387,150.417 -1.0198,-8.363 -0.73811,-5.996 -0.34053,-2.655 -0.93065,-7.341 -0.76485,-5.994 -0.46533,-4.508 0.13015,-7.707 0.0464,-1.879 0.13728,-6.245 0.1355,-8.132 0.0267,-1.439 0.1355,-6.896 0.10519,-5.703 0.10162,-4.894 0.18542,-7.28 0.0178,-0.658 0.11945,-5.452 0.0731,-3.298 0.0642,-2.756 0.19255,-7.226 -2.10735,-2.225 m -53.05821,49.651 -1.89519,0.07 -3.2787,0.134 -0.47424,0.03 -11.67601,0.474 -12.59241,0.339 -5.06157,0.1 -4.79592,0.13 -4.83693,0.128 -0.58835,0 -5.44666,0.121 -0.18542,0 -4.38586,0.1 m -168.6274,-282.273 -15.9032,-1.503 -0.82726,-0.08 -12.28575,-1.23 -1.15709,-0.06 -1.72938,-0.08 -3.86348,-0.417 -10.10887,-1.182 -3.10219,-0.378 -0.85935,-0.177 -7.65921,-0.939 -4.89219,-0.61 -5.47163,-0.667 -6.00292,-0.813 -4.99026,-0.659 -2.13053,-0.289 -0.32804,-0.05 -2.98988,-0.547 -8.54173,-1.157 -3.66379,-0.57 -1.35142,-0.211 -1.81496,-0.09 -5.34326,-0.724 -0.041,0 -2.41935,-0.378 -0.70602,-0.243 -2.00038,-0.408 -2.70818,-0.419 -1.39777,7.595 -0.59548,4.388 -1.7686,11.168 -1.71156,11.002 -0.65788,4.218 -1.06972,6.75 -1.88628,11.557 -1.87379,11.679 -1.53505,9.644 -1.19631,7.499 -0.93244,5.801 9.29588,1.535 7.73053,1.109 0.8112,0.121 0.0178,0 2.46571,0.353 2.3944,0.337 0.66857,0.1 8.01757,1.07 2.69391,0.392 13.66748,1.84 5.68914,0.685 10.29251,1.243 7.89277,0.929 9.18356,1.114 2.23393,0.265 15.68569,1.607 5.73015,0.554 15.30772,1.296 8.22794,0.674 3.30188,0.255 12.5514,0.918 0.55626,0.03 9.80222,0.656 -0.36192,5.842 -0.0802,1.207 -0.3851,5.955 -0.13728,2.097 -0.50634,8.001 11.18573,0.694 1.519,0.08 9.88245,0.529 0.34766,0.03 9.52944,0.457 0.27278,0.02 9.63017,0.385 7.84017,0.281 1.95937,0.06 5.95479,0.185 3.88131,0.105 4.03285,0.09 5.98688,0.144 1.92906,0.04 7.91416,0.127 7.93199,0.105 1.9362,0.02 5.97974,0.05 3.92766,0.02 3.99363,0 3.89736,0 7.84284,-0.03 0.55447,0 m -344.9568,-175.159997 -0.0981,-1.59 0.76485,-2.108 -0.0981,-1.975 -0.15333,-1.27 -0.0232,-0.08 -0.50455,-2.034 0.33696,-1.004 0.58657,-2.596 2.93995,-13.08 0.66857,-2.942 0.53665,-2.386 3.02909,-13.621 0.34588,-1.517 4.13091,-17.759 0.77911,-3.384 m 544.86823,306.701997 3.70302,-1.986 1.84706,-0.988 3.81712,-2.161 3.64062,-3.006 0.37797,-0.661 0.0731,-1.742 4.75669,-5.866 0.20147,-0.137 0.70601,-0.506 2.71532,-1.532 0.6757,-0.872 5.28086,-6.347 m 165.78551,-165.234 -2.2482,-0.901 -0.624,-2.506 -0.0499,-0.06 -1.94333,-1.159 -0.80586,-0.401 -0.29595,-0.153 -0.46712,-0.649 -0.15154,-0.323 -0.12302,-0.513 -0.27991,-3.135 -2.02534,-5.279 -3.28404,-10.872 -3.01484,-9.586 -0.24068,-0.772 -3.39994,-10.252997 -0.61865,-1.767 m -4.83693,8.235 -0.38688,0.795 -0.0232,5.642997 0.1355,0.383 0.60439,0.596 0.73811,0.907 0.40293,0.499 0.0713,0.114 0.41719,0.674 -0.21572,2.001 -0.18542,0.515 0,0 -0.0802,0.137 -0.79516,1.398 -0.066,0.103 -0.0945,0.138 -0.22464,0.29 -0.041,0.06 -0.51525,0.378 -0.34409,-0.03 -1.07685,1.397 -1.12499,0.708 -1.11252,0.692 -0.0838,0.08 -0.0499,0.04 -0.53843,0.972 -0.0553,0.234 0,0.144 0.52773,1.84 0.29953,0.403 0.27277,0.217 -0.44215,9.273 -1.0198,4.331 -0.61865,2.057 0.79694,3.664 0.34409,0.9 -0.0731,2.01 0.0642,1.695 0.54021,0.843 0.0357,0.138 0.43859,2.458 -1.04654,3.584 0.0731,0.232 0.47603,1.021 1.83814,1.478 m -13.13797,19.375 1.57427,8.743 0.54556,3.182 0.62757,3.68 0.2817,1.622 -0.54556,3.712 -0.10697,0.106 -1.25158,1.278 1.79713,2.312 m -356.71304,148.89 9.92523,-0.159 3.86526,-0.08 5.17568,-0.129 4.94033,-0.121 0.35479,0 8.09779,-0.241 1.50475,-0.05 4.45895,-0.153 6.94963,-0.287 0.54734,-0.03 8.21903,-0.369 4.07743,-0.146 0.78624,-0.02 5.14358,-0.272 6.26501,-0.355 3.8189,-0.207 6.51639,-0.371 0.49029,-0.03 0.72385,-0.02 1.63846,2.314 0.17828,0.239 0.11945,1.826 -0.19433,0.529 -0.12836,0.202 -2.0093,1.766 -2.84011,4.943 1.4673,-0.1 6.07424,-0.433 4.17013,-0.314 m 40.68509,-137.176 5.10971,-0.49 5.06335,-0.522 2.77236,-0.296 4.60337,-0.467 2.23394,-0.239 6.23648,-0.717 1.62241,-0.175 6.30066,-0.739 0.49742,1.428 6.87118,-1.052 0.64897,-0.104 8.10136,-1.326 1.9772,-0.346 5.21311,-0.884 m 4.4447,156.935 3.57822,-0.419 2.30346,-0.289 1.28011,-0.167 7.17248,-1.045 1.21592,-0.194 6.93358,-1.092 m -119.84266,-22.533 -1.24445,0.123 m -374.5774,105.874 3.49621,-24.959 1.11607,-8.021 1.36568,-9.857 1.80961,-13.026 2.54594,-18.337 1.20522,-8.718 3.30366,-23.908 3.17351,-22.867 0,0 1.57427,-11.154 1.27654,-9.094 0.86112,-6.237 0.78803,-8.01 0.69889,-5.048 0.69175,-4.227 0.12837,-0.884 0.60974,-4.172 0.77198,-5.552 0.41898,-3.004 0.51346,-3.737 3.19847,-22.789 1.07685,-7.964 m 576.87253,7.451 -5.9637,1.277 -1.67946,0.363 -0.11233,0.02 -5.66596,1.188 -3.74224,0.779 -3.65845,0.763 -3.73868,0.756 -4.17548,0.827 -0.16759,0.03 -10.87372,2.058 -4.20936,0.795 -0.65253,0.121 -7.39178,1.364 -2.11805,0.387 -7.96586,1.455 -1.46374,0.263 -4.97599,0.878 -2.63329,0.449 -8.75033,1.462 -1.70264,0.274 -0.90035,-5.512 -0.20146,-1.23 -0.53487,-3.277 -0.88786,-5.474 -0.30488,-1.792 -0.60974,-3.688 -0.79516,-4.857 -0.20324,-1.105 -0.82904,-5.151 -0.0303,-0.185 -1.34072,-8.123 -0.0428,-0.25 -1.30863,-7.987 -0.47781,-2.917 m 144.94019,-31.435 1.80962,6.307 0.4992,1.897 0.25495,0.965 0.43502,6.452 m -665.13527,16.438 -7.73766,-1.205 -10.116,-1.637 -0.91818,-0.146 -1.2284,-0.317 -0.009,0 -3.55148,-0.614 -4.33059,-0.748 -4.89398,-0.828 -6.7339,-1.139 -0.49029,-0.08 -5.58395,-0.95 -0.53129,-0.09 -1.42986,-0.249 -0.19968,-0.04 -1.3425,-0.32 -1.11786,-0.282 0,0 -4.34664,22.589 -3.92945,20.07 -0.93244,4.799 -1.59923,8.26 -3.82426,19.694 -0.46711,2.38 -1.84705,9.658 -2.42649,12.367 -2.6119,13.757 -0.69176,3.584 -0.72206,3.786 -0.0891,0.462 -0.73098,4.172 -0.44215,2.316 -0.77912,4.042 -2.33021,3.148 -0.2496,0.282 -0.0321,0.02 -0.0642,0.04 -0.016,0 -1.11608,-0.02 -0.36192,-0.04 -0.0963,-0.02 -0.23356,-0.178 -0.16046,-0.168 -0.4261,-0.676 -0.12837,-0.385 -0.0161,-0.192 -0.009,-0.05 -0.0321,-0.176 -0.22464,-0.563 -0.54556,-0.772 -0.2496,-0.234 -2.33913,-0.69 -1.05902,-0.217 -1.12678,0 -2.05743,0.483 -0.18363,0.1 -0.24961,0.225 -0.016,0.146 -0.23356,2.25 -0.49742,6.588 -0.22464,4.027 0.24069,2.844 0.16759,1.348 0.025,0.675 -0.12837,2.805 -0.0232,0.513 -0.0981,0.458 -0.16758,0.548 -1.72047,2.875 m 211.66588,-156.869 -0.75594,8.959 -1.18917,14.054 -0.60261,7.002 -0.25852,3.082 -0.32805,3.948 -0.77911,9.033 m 182.04528,266.803 -0.17828,-5.125 2.29098,-3.194 0.0143,-4.441 -0.59727,-3.621 0.76842,-0.647 0.0802,-0.2 0.007,-0.119 -0.27991,-1.433 -0.55447,-0.669 -0.0571,-0.06 0,0 0.22464,-0.804 2.8205,-5.311 0.35479,-1.542 -0.0731,-7.288 -0.91461,0.24 -0.20325,-1.189 -0.1355,-0.754 -0.58656,-2.557 -1.8007,-2.612 -2.1127,-2.219 -0.98058,-5.919 -2.74027,-3.062 -0.62579,-4.967 -0.0981,-4.523 -0.15155,-6.935 -0.0802,-4.34 -0.0713,-3.189 -0.12124,-5.811 -0.13728,-6.493 -0.4582,-0.378 -0.353,-0.144 -1.84884,-0.371 -1.06972,0.155 -0.27991,0.03 -0.0963,0.09 -1.84883,0.938 -1.02872,-0.561 -0.27991,-0.184 -0.7809,-0.499 -0.12658,-0.17 -0.1462,-0.335 -0.15154,-0.394 -4.97421,-1.431 -2.3623,-0.965 -3.26265,-2.612 -2.22681,-1.904 -1.20522,-0.403 -0.13549,0 -0.0642,0.03 -0.016,0 -0.0107,0 -0.40828,0.619 -0.009,0.03 0,0.04 -0.007,0.02 0.007,0.02 0.0731,0.154 0,0.03 0.0321,0.2 -0.0321,0.232 -0.10341,0.233 -0.10697,0.104 -0.50634,0.33 -0.14976,0.02 -0.28169,0.03 -0.55448,0.07 -0.009,0 -1.28723,0.06 -0.71315,-0.06 -1.88093,-0.25 -0.0713,-0.06 -0.0749,-0.128 0,-0.02 -0.005,-0.118 0.0571,-0.162 0.005,-0.153 -0.20147,-0.514 -0.14441,-0.06 -0.61687,-0.03 -1.39064,0.722 -1.59567,0.833 -1.63489,0.615 -0.92353,-0.17 -1.10003,-0.217 -0.25851,0.03 -0.41006,0.03 -2.13766,0.178 -0.96454,0.223 -0.16046,0.563 -0.11945,0.555 -0.009,0.06 -0.016,0.06 -0.0553,0.177 -0.0481,0.153 -0.009,0.02 -0.0232,0.03 -0.17828,0.186 -0.0232,0.03 -0.34588,0.148 -0.39401,0.105 -2.83655,0.701 -0.18363,-0.251 -0.82725,-1.125 0,0 -0.24961,-0.08 -0.22464,-0.02 -0.97344,0.185 -0.025,0 -0.17651,-0.121 -1.95224,-1.311 -0.0161,-0.06 -0.016,-0.111 -0.016,-0.283 0.0642,-0.369 -1.9041,0.859 -0.0161,0 -0.92352,0.155 -1.79357,-0.549 -0.19255,-0.133 -0.312,-0.35 -0.96454,-1.982 0,0 -0.18541,0.103 -2.85973,4.96 -0.0891,0.119 -0.19255,0.154 -0.27278,0.09 -0.30487,-0.04 -0.26565,-0.09 -5.53759,-2.42 -0.16759,-0.112 -0.11232,-0.135 0,0 -0.0161,-0.04 -0.0499,-0.12 -0.37618,-1.718 0,0 -1.46374,0.394 -0.68284,-0.477 -1.9362,-1.292 -0.65074,0.82 -0.99663,1.036 -0.94849,0.747 -0.59369,0.176 -0.22643,-0.02 -1.67768,-0.765 -0.21037,-0.194 0.49028,-1.061 0.16225,-1.237 -0.7078,-0.28 -0.65967,0.16 -0.0232,0 -0.41006,0 -0.80408,-0.24 -0.0321,0 -0.0481,-0.05 -0.32983,-0.659 -1.14817,-1.888 -2.94173,-0.924 -0.72385,-0.162 -0.36905,0.209 -0.76307,0.964 -1.01267,0.909 -0.016,0.02 -0.007,0 -0.54021,-0.194 -0.89856,-1.446 -0.43324,-0.369 -0.41897,-0.276 -0.19255,-0.01 -1.72047,0.53 -1.23731,-0.05 -1.74365,-0.427 -1.75078,-1.046 -0.29061,-0.134 -1.74364,-0.137 -0.76307,0.01 -0.35301,0.02 -0.7078,-0.16 -0.3851,-0.12 -0.24069,-0.07 -0.009,-0.01 0,0 -0.32805,-1.783 0.0161,-0.499 0.0232,-0.531 0,-0.02 -0.89143,-1.551 -0.94136,-0.507 -0.82725,-0.449 -0.8112,1.453 -0.007,0.02 -0.025,0.04 -0.016,0 -0.14441,0.06 -0.63471,-0.06 -0.61865,-0.587 -0.46711,-0.272 -0.28883,-0.122 -0.90035,-0.105 -0.20859,-0.03 -0.10341,0.04 -0.73276,0.925 -0.73098,0 -0.16046,0 -0.57943,-0.137 -1.31754,-1.253 -0.47424,-0.562 -0.98058,-1.271 -2.75453,-1.373 0.12836,-4.275 0.27278,-6.565 0.15333,-3.519 0.23177,-5.547 0.19433,-4.546 0.24782,-6.06 0.16938,-4.04 0.37796,-10.278 -9.94841,-0.444 -7.48092,-0.376 -2.40331,-0.12 -9.86819,-0.563 -7.47914,-0.473 -2.38726,-0.155 -15.3719,-1.068 m 119.35244,-213.439 -10.68117,-0.106 -12.04507,-0.217 -0.47424,-0.02 -11.49773,-0.344 -4.50888,-0.161 -11.43355,-0.435 -2.60299,-0.119 -9.92523,-0.483 -0.19968,0 -3.64776,-0.186 -0.36192,-0.02 -0.13015,0 -1.92728,-0.1 -1.45482,-0.08 -4.66042,-0.257 -1.63846,-0.09 -0.93244,-0.06 -2.0093,-0.113 -2.42827,-0.153 -2.30525,-0.136 -1.93619,-0.121 -0.25852,-0.02 -0.15868,-0.02 -15.09199,-1.045 -0.85934,-0.06 -16.80177,-1.334 0.64183,-7.657 0.51525,-5.955 0.19255,-2.3 1.33359,-15.699997 0.13728,-1.535 1.16422,-13.612 0.71493,-8.936 0.45819,-5.544 0.69176,-8.292"
     class="State_Lines"
     id="#State_borders" />
  <path
     d="m 275.14573,525.53314 0,63.053 41.27121,37.326 m -315.2580745,-178.336 197.1765345,0 76.81033,77.957 98.59237,0 60.76042,61.907 0,38.472"
     class="separator"
     id="#separator" />
</svg>